<svg width="32" height="32" viewBox="0 0 32 32" fill="none" xmlns="http://www.w3.org/2000/svg">
<path d="M14.7064 11.9596C14.3159 11.569 13.6827 11.569 13.2922 11.9596C12.9017 12.3501 12.9017 12.9832 13.2922 13.3738L15.9185 16L13.2922 18.6262C12.9017 19.0168 12.9017 19.6499 13.2922 20.0404C13.6828 20.431 14.3159 20.431 14.7065 20.0404L17.3327 17.4142L19.9589 20.0404C20.3494 20.4309 20.9825 20.4309 21.3731 20.0404C21.7636 19.6499 21.7636 19.0167 21.3731 18.6262L18.7469 16L21.3731 13.3738C21.7636 12.9833 21.7636 12.3501 21.3731 11.9596C20.9826 11.5691 20.3494 11.5691 19.9589 11.9596L17.3327 14.5858L14.7064 11.9596Z" fill="#484848"/>
<path fill-rule="evenodd" clip-rule="evenodd" d="M28.4248 6.17875C27.4045 5.18583 26.1133 4.74618 24.5148 4.53704C22.9575 4.3333 20.9661 4.33331 18.4449 4.33333H14.8071C13.3631 4.33332 12.2104 4.33331 11.2665 4.42121C10.292 4.51197 9.46573 4.70131 8.68617 5.12176C7.90532 5.54291 7.29929 6.12687 6.7004 6.88716C6.12197 7.62146 5.50987 8.5745 4.74559 9.7645L3.78204 11.2647C3.14451 12.2573 2.62396 13.0678 2.26908 13.774C1.89833 14.5119 1.66602 15.2147 1.66602 16C1.66602 16.7853 1.89833 17.4881 2.26908 18.226C2.62395 18.9322 3.1445 19.7427 3.78201 20.7352L4.7456 22.2355C5.50988 23.4255 6.12198 24.3785 6.7004 25.1128C7.29929 25.8731 7.90532 26.4571 8.68617 26.8782C9.46573 27.2987 10.292 27.488 11.2665 27.5788C12.2104 27.6667 13.363 27.6667 14.807 27.6667H18.4448C20.9661 27.6667 22.9575 27.6667 24.5148 27.463C26.1133 27.2538 27.4045 26.8142 28.4248 25.8212C29.449 24.8246 29.9059 23.5573 30.1226 21.989C30.3327 20.4682 30.3327 18.5257 30.3327 16.0769V15.9229C30.3327 13.4742 30.3327 11.5318 30.1226 10.011C29.9059 8.44273 29.449 7.17538 28.4248 6.17875ZM18.3713 6.33333C20.9824 6.33333 22.8429 6.33535 24.2554 6.52014C25.6418 6.70154 26.4451 7.04293 27.03 7.61211C27.6111 8.17758 27.9568 8.94835 28.1414 10.2847C28.3304 11.6528 28.3327 13.4568 28.3327 16C28.3327 18.5432 28.3304 20.3472 28.1414 21.7153C27.9568 23.0516 27.6111 23.8224 27.03 24.3879C26.4451 24.9571 25.6418 25.2985 24.2554 25.4799C22.8429 25.6647 20.9824 25.6667 18.3713 25.6667H14.8554C13.3521 25.6667 12.2924 25.6657 11.452 25.5874C10.6317 25.511 10.0956 25.3661 9.63558 25.1179C9.17682 24.8705 8.76954 24.5075 8.2715 23.8752C7.75974 23.2256 7.19883 22.3542 6.40157 21.1129L5.49383 19.6996C4.8203 18.6509 4.35805 17.9288 4.05616 17.328C3.76477 16.7481 3.66602 16.3619 3.66602 16C3.66602 15.6381 3.76477 15.2519 4.05616 14.672C4.35805 14.0712 4.8203 13.3491 5.49383 12.3004L6.40157 10.8871C7.19882 9.64577 7.75974 8.77443 8.2715 8.12475C8.76954 7.4925 9.17682 7.12948 9.63558 6.88205C10.0956 6.63393 10.6317 6.48899 11.452 6.4126C12.2924 6.33433 13.3521 6.33333 14.8554 6.33333L18.3713 6.33333Z" fill="#484848"/>
</svg>
