<svg width="31" height="31" viewBox="0 0 31 31" fill="none" xmlns="http://www.w3.org/2000/svg">
<path d="M27.7569 13.0519H26.75V13H15.5V18H22.5644C21.5338 20.9106 18.7644 23 15.5 23C11.3581 23 8 19.6419 8 15.5C8 11.3581 11.3581 8 15.5 8C17.4119 8 19.1513 8.72125 20.4756 9.89938L24.0113 6.36375C21.7788 4.28313 18.7925 3 15.5 3C8.59688 3 3 8.59688 3 15.5C3 22.4031 8.59688 28 15.5 28C22.4031 28 28 22.4031 28 15.5C28 14.6619 27.9138 13.8438 27.7569 13.0519Z" fill="#FFC107"/>
<path d="M4.44128 9.68187L8.54816 12.6937C9.65941 9.9425 12.3507 8 15.5 8C17.4119 8 19.1513 8.72125 20.4757 9.89937L24.0113 6.36375C21.7788 4.28312 18.7925 3 15.5 3C10.6988 3 6.53503 5.71062 4.44128 9.68187Z" fill="#FF3D00"/>
<path d="M15.5 28C18.7287 28 21.6625 26.7644 23.8806 24.755L20.0118 21.4813C18.7149 22.4682 17.1297 23.0018 15.5 23C12.2487 23 9.48808 20.9269 8.44808 18.0338L4.37183 21.1744C6.44058 25.2225 10.6418 28 15.5 28Z" fill="#4CAF50"/>
<path d="M27.7569 13.0519H26.75V13H15.5V18H22.5644C22.0714 19.3853 21.1833 20.5957 20.01 21.4819L20.0119 21.4806L23.8806 24.7544C23.6069 25.0031 28 21.75 28 15.5C28 14.6619 27.9138 13.8438 27.7569 13.0519Z" fill="#1976D2"/>
</svg>
