<svg width="91" height="38" viewBox="0 0 91 38" fill="none" xmlns="http://www.w3.org/2000/svg">
<path d="M0 19C0 8.50659 8.50659 0 19 0H72C82.4934 0 91 8.50659 91 19C91 29.4934 82.4934 38 72 38H19C8.50659 38 0 29.4934 0 19Z" fill="#161616"/>
<path d="M29.3483 23.968C29.3483 25.168 28.8323 26.14 27.8003 26.884C26.7683 27.628 25.2043 28 23.1083 28H14.1083C13.8283 28 13.6203 27.944 13.4843 27.832C13.3483 27.712 13.2803 27.552 13.2803 27.352C13.2803 27.008 13.4603 26.776 13.8203 26.656L14.4083 26.488C14.6083 26.424 14.7563 26.336 14.8523 26.224C14.9563 26.104 15.0083 25.952 15.0083 25.768V13.42C15.0083 13.236 14.9603 13.088 14.8643 12.976C14.7683 12.864 14.6163 12.776 14.4083 12.712L13.8203 12.544C13.4603 12.424 13.2803 12.192 13.2803 11.848C13.2803 11.64 13.3483 11.48 13.4843 11.368C13.6203 11.256 13.8283 11.2 14.1083 11.2H21.0923C22.6283 11.2 23.9403 11.408 25.0283 11.824C26.1163 12.232 26.9483 12.804 27.5243 13.54C28.1003 14.276 28.3883 15.132 28.3883 16.108C28.3883 16.916 28.1523 17.632 27.6803 18.256C27.2163 18.88 26.5323 19.372 25.6283 19.732C24.7323 20.092 23.6363 20.272 22.3403 20.272L22.9523 19.852C24.2323 19.852 25.3523 20.028 26.3123 20.38C27.2723 20.724 28.0163 21.208 28.5443 21.832C29.0803 22.448 29.3483 23.16 29.3483 23.968ZM21.4763 20.8H18.4043V19.708H21.0683C21.7163 19.708 22.2603 19.584 22.7003 19.336C23.1483 19.088 23.4843 18.716 23.7083 18.22C23.9403 17.724 24.0563 17.108 24.0563 16.372C24.0563 15.572 23.9083 14.88 23.6123 14.296C23.3163 13.712 22.8923 13.26 22.3403 12.94C21.7883 12.62 21.1203 12.46 20.3363 12.46H19.6163V25.492C19.6163 25.916 19.7403 26.232 19.9883 26.44C20.2363 26.64 20.5963 26.74 21.0683 26.74H22.0523C22.6363 26.74 23.1283 26.624 23.5283 26.392C23.9363 26.16 24.2483 25.828 24.4643 25.396C24.6803 24.956 24.7883 24.436 24.7883 23.836C24.7883 22.9 24.5003 22.16 23.9243 21.616C23.3563 21.072 22.5403 20.8 21.4763 20.8Z" fill="white"/>
<path fill-rule="evenodd" clip-rule="evenodd" d="M40.0416 27.3333C40.0416 26.9882 40.3214 26.7083 40.6666 26.7083H47.3333C47.6785 26.7083 47.9583 26.9882 47.9583 27.3333C47.9583 27.6785 47.6785 27.9583 47.3333 27.9583H40.6666C40.3214 27.9583 40.0416 27.6785 40.0416 27.3333Z" fill="#FF9900"/>
<path fill-rule="evenodd" clip-rule="evenodd" d="M44 10.0417C44.3451 10.0417 44.625 10.3215 44.625 10.6667V11.5C44.625 11.8452 44.3451 12.125 44 12.125C43.6548 12.125 43.375 11.8452 43.375 11.5V10.6667C43.375 10.3215 43.6548 10.0417 44 10.0417ZM35.0416 19C35.0416 18.6548 35.3214 18.375 35.6666 18.375H36.5C36.8451 18.375 37.125 18.6548 37.125 19C37.125 19.3452 36.8451 19.625 36.5 19.625H35.6666C35.3214 19.625 35.0416 19.3452 35.0416 19ZM50.875 19C50.875 18.6548 51.1548 18.375 51.5 18.375H52.3333C52.6785 18.375 52.9583 18.6548 52.9583 19C52.9583 19.3452 52.6785 19.625 52.3333 19.625H51.5C51.1548 19.625 50.875 19.3452 50.875 19Z" fill="#FF9900"/>
<path fill-rule="evenodd" clip-rule="evenodd" d="M39.0689 21.7083H35.6666C35.3214 21.7083 35.0416 21.9882 35.0416 22.3333C35.0416 22.6785 35.3214 22.9583 35.6666 22.9583H52.3333C52.6785 22.9583 52.9583 22.6785 52.9583 22.3333C52.9583 21.9882 52.6785 21.7083 52.3333 21.7083H48.9311H39.0689Z" fill="#FF9900"/>
<path d="M40.6666 25.9583C39.9072 25.9583 39.2916 26.5739 39.2916 27.3333H40.7916C40.7916 27.4024 40.7357 27.4583 40.6666 27.4583V25.9583ZM47.3333 25.9583H40.6666V27.4583H47.3333V25.9583ZM48.7083 27.3333C48.7083 26.5739 48.0927 25.9583 47.3333 25.9583V27.4583C47.2643 27.4583 47.2083 27.4024 47.2083 27.3333H48.7083ZM47.3333 28.7083C48.0927 28.7083 48.7083 28.0927 48.7083 27.3333H47.2083C47.2083 27.2643 47.2643 27.2083 47.3333 27.2083V28.7083ZM40.6666 28.7083H47.3333V27.2083H40.6666V28.7083ZM39.2916 27.3333C39.2916 28.0927 39.9072 28.7083 40.6666 28.7083V27.2083C40.7357 27.2083 40.7916 27.2643 40.7916 27.3333H39.2916ZM52.3333 20.9583H48.9311V22.4583H52.3333V20.9583ZM53.7083 22.3333C53.7083 21.5739 53.0927 20.9583 52.3333 20.9583V22.4583C52.2643 22.4583 52.2083 22.4024 52.2083 22.3333H53.7083ZM52.3333 23.7083C53.0927 23.7083 53.7083 23.0927 53.7083 22.3333H52.2083C52.2083 22.2643 52.2643 22.2083 52.3333 22.2083V23.7083ZM35.6666 23.7083H52.3333V22.2083H35.6666V23.7083ZM34.2916 22.3333C34.2916 23.0927 34.9072 23.7083 35.6666 23.7083V22.2083C35.7357 22.2083 35.7916 22.2643 35.7916 22.3333H34.2916ZM35.6666 20.9583C34.9072 20.9583 34.2916 21.5739 34.2916 22.3333H35.7916C35.7916 22.4024 35.7357 22.4583 35.6666 22.4583V20.9583ZM39.0689 20.9583H35.6666V22.4583H39.0689V20.9583ZM45.375 10.6667C45.375 9.90728 44.7594 9.29167 44 9.29167V10.7917C43.9309 10.7917 43.875 10.7357 43.875 10.6667H45.375ZM45.375 11.5V10.6667H43.875V11.5H45.375ZM44 12.875C44.7594 12.875 45.375 12.2594 45.375 11.5H43.875C43.875 11.431 43.9309 11.375 44 11.375V12.875ZM42.625 11.5C42.625 12.2594 43.2406 12.875 44 12.875V11.375C44.069 11.375 44.125 11.431 44.125 11.5H42.625ZM42.625 10.6667V11.5H44.125V10.6667H42.625ZM44 9.29167C43.2406 9.29167 42.625 9.90728 42.625 10.6667H44.125C44.125 10.7357 44.069 10.7917 44 10.7917V9.29167ZM35.6666 17.625C34.9072 17.625 34.2916 18.2406 34.2916 19H35.7916C35.7916 19.069 35.7357 19.125 35.6666 19.125V17.625ZM36.5 17.625H35.6666V19.125H36.5V17.625ZM37.875 19C37.875 18.2406 37.2594 17.625 36.5 17.625V19.125C36.4309 19.125 36.375 19.069 36.375 19H37.875ZM36.5 20.375C37.2594 20.375 37.875 19.7594 37.875 19H36.375C36.375 18.931 36.4309 18.875 36.5 18.875V20.375ZM35.6666 20.375H36.5V18.875H35.6666V20.375ZM34.2916 19C34.2916 19.7594 34.9072 20.375 35.6666 20.375V18.875C35.7357 18.875 35.7916 18.931 35.7916 19H34.2916ZM51.5 17.625C50.7406 17.625 50.125 18.2406 50.125 19H51.625C51.625 19.069 51.569 19.125 51.5 19.125V17.625ZM52.3333 17.625H51.5V19.125H52.3333V17.625ZM53.7083 19C53.7083 18.2406 53.0927 17.625 52.3333 17.625V19.125C52.2643 19.125 52.2083 19.069 52.2083 19H53.7083ZM52.3333 20.375C53.0927 20.375 53.7083 19.7594 53.7083 19H52.2083C52.2083 18.931 52.2643 18.875 52.3333 18.875V20.375ZM51.5 20.375H52.3333V18.875H51.5V20.375ZM50.125 19C50.125 19.7594 50.7406 20.375 51.5 20.375V18.875C51.569 18.875 51.625 18.931 51.625 19H50.125ZM48.9311 20.9583H39.0689V22.4583H48.9311V20.9583Z" fill="#BEA200"/>
<path opacity="0.5" d="M37.5416 24.8333C37.5416 24.4882 37.8214 24.2083 38.1666 24.2083H49.8333C50.1785 24.2083 50.4583 24.4882 50.4583 24.8333C50.4583 25.1785 50.1785 25.4583 49.8333 25.4583H38.1666C37.8214 25.4583 37.5416 25.1785 37.5416 24.8333Z" fill="#FF9900" stroke="#BEA200" stroke-width="1.5" stroke-linecap="round" stroke-linejoin="round"/>
<g opacity="0.5">
<path d="M37.6654 12.6653C37.9094 12.4212 38.3052 12.4212 38.5492 12.6653L38.8766 12.9927C39.1207 13.2368 39.1207 13.6325 38.8766 13.8766C38.6325 14.1206 38.2368 14.1206 37.9927 13.8766L37.6654 13.5492C37.4213 13.3051 37.4213 12.9094 37.6654 12.6653Z" fill="#FF9900"/>
<path d="M50.3341 12.6655C50.5782 12.9096 50.5782 13.3053 50.3341 13.5494L50.0068 13.8768C49.7627 14.1209 49.367 14.1209 49.1229 13.8768C48.8788 13.6327 48.8788 13.237 49.1229 12.9929L49.4502 12.6655C49.6943 12.4215 50.09 12.4215 50.3341 12.6655Z" fill="#FF9900"/>
</g>
<path opacity="0.5" d="M38.375 19C38.375 19.9815 38.6267 20.9048 39.0689 21.7083H48.9311C49.3733 20.9048 49.625 19.9815 49.625 19C49.625 15.8934 47.1066 13.375 44 13.375C40.8934 13.375 38.375 15.8934 38.375 19Z" fill="#FF9900"/>
<path d="M62.8826 19.336H73.0946V20.764H62.8826V19.336ZM65.5346 25.78C65.5346 25.964 65.5866 26.112 65.6906 26.224C65.7946 26.336 65.9426 26.424 66.1346 26.488L66.7226 26.656C67.0826 26.776 67.2626 27.008 67.2626 27.352C67.2626 27.552 67.1946 27.712 67.0586 27.832C66.9226 27.944 66.7146 28 66.4346 28H60.0266C59.7466 28 59.5386 27.944 59.4026 27.832C59.2666 27.712 59.1986 27.552 59.1986 27.352C59.1986 27.008 59.3786 26.776 59.7386 26.656L60.3266 26.488C60.5266 26.424 60.6746 26.336 60.7706 26.224C60.8746 26.112 60.9266 25.964 60.9266 25.78V13.42C60.9266 13.236 60.8746 13.088 60.7706 12.976C60.6746 12.864 60.5266 12.776 60.3266 12.712L59.7386 12.544C59.3786 12.424 59.1986 12.192 59.1986 11.848C59.1986 11.64 59.2666 11.48 59.4026 11.368C59.5386 11.256 59.7466 11.2 60.0266 11.2H66.4346C66.7146 11.2 66.9226 11.256 67.0586 11.368C67.1946 11.48 67.2626 11.64 67.2626 11.848C67.2626 12.192 67.0826 12.424 66.7226 12.544L66.1346 12.712C65.9426 12.776 65.7946 12.864 65.6906 12.976C65.5866 13.088 65.5346 13.236 65.5346 13.42V25.78ZM76.0946 25.78C76.0946 25.964 76.1426 26.112 76.2386 26.224C76.3426 26.336 76.4946 26.424 76.6946 26.488L77.2706 26.656C77.6306 26.776 77.8106 27.008 77.8106 27.352C77.8106 27.552 77.7426 27.712 77.6066 27.832C77.4786 27.944 77.2706 28 76.9826 28H70.5746C70.2946 28 70.0866 27.944 69.9506 27.832C69.8226 27.712 69.7586 27.552 69.7586 27.352C69.7586 27.008 69.9346 26.776 70.2866 26.656L70.8746 26.488C71.0746 26.424 71.2226 26.336 71.3186 26.224C71.4226 26.112 71.4746 25.964 71.4746 25.78V13.42C71.4746 13.236 71.4226 13.088 71.3186 12.976C71.2226 12.864 71.0746 12.776 70.8746 12.712L70.2866 12.544C69.9346 12.424 69.7586 12.192 69.7586 11.848C69.7586 11.64 69.8226 11.48 69.9506 11.368C70.0866 11.256 70.2946 11.2 70.5746 11.2H76.9826C77.2706 11.2 77.4786 11.256 77.6066 11.368C77.7426 11.48 77.8106 11.64 77.8106 11.848C77.8106 12.192 77.6306 12.424 77.2706 12.544L76.6946 12.712C76.4946 12.776 76.3426 12.864 76.2386 12.976C76.1426 13.088 76.0946 13.236 76.0946 13.42V25.78Z" fill="white"/>
</svg>
